<mxfile host="app.diagrams.net" modified="2021-09-17T20:44:41.956Z" agent="5.0 (Windows NT 10.0; Win64; x64) AppleWebKit/537.36 (KHTML, like Gecko) Chrome/93.0.4577.82 Safari/537.36" etag="wikXtZFwQMnxII8IXiGN" version="15.2.9" type="github">
  <diagram id="F4OHHnGvqvRmnrfk2mmA" name="Page-1">
    <mxGraphModel dx="850" dy="403" grid="1" gridSize="10" guides="1" tooltips="1" connect="1" arrows="1" fold="1" page="1" pageScale="1" pageWidth="827" pageHeight="1169" math="0" shadow="0">
      <root>
        <mxCell id="0" />
        <mxCell id="1" parent="0" />
        <mxCell id="j31GDxyFJG87RY9cWTl1-24" value="" style="rounded=1;whiteSpace=wrap;html=1;sketch=1;fillColor=none;" vertex="1" parent="1">
          <mxGeometry x="351.88" y="190" width="130" height="170" as="geometry" />
        </mxCell>
        <mxCell id="j31GDxyFJG87RY9cWTl1-27" style="edgeStyle=orthogonalEdgeStyle;rounded=0;orthogonalLoop=1;jettySize=auto;html=1;entryX=0.5;entryY=1;entryDx=0;entryDy=0;startArrow=classic;startFill=1;" edge="1" parent="1" source="j31GDxyFJG87RY9cWTl1-22" target="j31GDxyFJG87RY9cWTl1-24">
          <mxGeometry relative="1" as="geometry" />
        </mxCell>
        <mxCell id="j31GDxyFJG87RY9cWTl1-30" style="edgeStyle=orthogonalEdgeStyle;rounded=0;orthogonalLoop=1;jettySize=auto;html=1;startArrow=classic;startFill=1;" edge="1" parent="1" source="j31GDxyFJG87RY9cWTl1-22" target="j31GDxyFJG87RY9cWTl1-29">
          <mxGeometry relative="1" as="geometry" />
        </mxCell>
        <mxCell id="j31GDxyFJG87RY9cWTl1-22" value="" style="rounded=1;whiteSpace=wrap;html=1;sketch=1;fillColor=none;" vertex="1" parent="1">
          <mxGeometry x="351.88" y="395" width="130" height="170" as="geometry" />
        </mxCell>
        <mxCell id="j31GDxyFJG87RY9cWTl1-20" value="" style="rounded=1;whiteSpace=wrap;html=1;sketch=1;fillColor=default;" vertex="1" parent="1">
          <mxGeometry x="381.89" y="250" width="70" height="90" as="geometry" />
        </mxCell>
        <mxCell id="j31GDxyFJG87RY9cWTl1-26" style="edgeStyle=orthogonalEdgeStyle;rounded=0;orthogonalLoop=1;jettySize=auto;html=1;entryX=0;entryY=0.5;entryDx=0;entryDy=0;startArrow=classic;startFill=1;" edge="1" parent="1" source="j31GDxyFJG87RY9cWTl1-13" target="j31GDxyFJG87RY9cWTl1-22">
          <mxGeometry relative="1" as="geometry" />
        </mxCell>
        <mxCell id="j31GDxyFJG87RY9cWTl1-28" style="edgeStyle=orthogonalEdgeStyle;rounded=0;orthogonalLoop=1;jettySize=auto;html=1;entryX=0;entryY=0.5;entryDx=0;entryDy=0;startArrow=classic;startFill=1;exitX=0.5;exitY=0;exitDx=0;exitDy=0;dashed=1;" edge="1" parent="1" source="j31GDxyFJG87RY9cWTl1-13" target="j31GDxyFJG87RY9cWTl1-24">
          <mxGeometry relative="1" as="geometry" />
        </mxCell>
        <mxCell id="j31GDxyFJG87RY9cWTl1-13" value="" style="rounded=1;whiteSpace=wrap;html=1;sketch=1;fillColor=none;" vertex="1" parent="1">
          <mxGeometry x="115" y="380" width="190" height="200" as="geometry" />
        </mxCell>
        <mxCell id="j31GDxyFJG87RY9cWTl1-1" value="" style="rounded=1;whiteSpace=wrap;html=1;sketch=1;" vertex="1" parent="1">
          <mxGeometry x="220" y="440" width="70" height="90" as="geometry" />
        </mxCell>
        <mxCell id="j31GDxyFJG87RY9cWTl1-3" value="" style="shape=image;verticalLabelPosition=bottom;labelBackgroundColor=#ffffff;verticalAlign=top;aspect=fixed;imageAspect=0;image=data:image/png,iVBORw0KGgoAAAANSUhEUgAAARgAAAEYCAYAAACHjumMAABCE0lEQVR4nOy9CVxU573//3kmpPWmtrERFRMY9sGURc1yYQZtVEgFccutwEBsY6K5MY3GAbMY0cb+XbMIGE1qGjXmNpEBTatRFK8BtZEZbDbWRIZFnOFG3FKamJR/Yuf5veYARpFlzpnnzMI879eLV1M55/t8meVznuW7+IDjnUSqhyImLgXpuiQoyD0AGQPAVZ+HVlBaiRrjR6irqEC18STqKtpd5AuHIcTVDnCcRGSsD6I18YhST0dM3CSAjHOhoAyMIDgVx1Br3A19nsHV7nCkwQVmMBMQfgsmTE+FNns2CCYBGOZqlyTSAqu1BIX5e1FtOI66kx2udohjH1xgBiParLGIUs9FTNxvATLS1e4wph3Uuhf6fD0XG/eHC8xgQDNtBJQRUxCfcj8CVbblT6irXXISX8Fs+gCfHPsLjuj/AksD37dxM7jAeDKalF/g2a1rQTDdrfdTnEMHKC1BQd4G6PNOutoZTidcYDwRrS4IUZonEKN+HMBPXO2OG1KJgtxVKMjb52pHvB0uMJ6EVheKjOwVIGQun7HYxSlUGzbg9RW7YGn43tXOeCNcYDyByLhhyMh+HjHqhQCGuNodj8NsKsbWnAWorWhztSveBhcYdyYydggyli5BjHqZBx8xuwsdqDFuxa6NK1F38rKrnfEWuMC4K+m6u/Dg0kIAYa52ZZDRhmrDKqxIf93VjngDXGDckTWFDyFG8yrfwJWVSuzaOA/6/CpXOzKY4QLjLgSE34KMrHmIn/E7EES62h0v4d8w1x9BQd4zKC+ucbUzgxEuMO6AVhePzGw9QPxd7YqX8h2qDU/yZRN7uMC4kshYH2QuXY1o9VP82NkNoHQvctIe56dN7OAC4yoCwm/DlrJiEMS52hU7uQKKNoC2CRulFO1CXhDoFRTmd4boR8YNQVTcEEAxFKBDQOBr+0sBEgiCoa7+A+yDtmJX7lzo84+72pPBABcYVxCpHop1hUdAiHuKC0UjQCtx4sAJWExVwv+vNbah7uQVyTbTdb4gCAIhoYiMG4NodRRA7hH+zf24ghrjCuSkveBqRzwdLjDOJiouFOt277X9l6td6cI2MzmBGsMx1FWcgJV+fHVG4gzSdSFQkGRosyaAkERAmPW4B5QewPLUVJ6xLR0uMM5ktT4BY+P3uEHQnE1UjqF8/1sofmuPW32BtFn3ICpuKqLV091ihmcT30UJ98Nicp/XyIPgAuMs1hbNR7R6qws3cztFpaZcj4L8dz2iJGW6LggTpj+OwIj/dqkof7A/By/9bp3LxvdguMDITYDqdjz7xzwoVWnOH5yewxnTX1FeXAZz/TEYDl5wvg8MCAi/GUqVBvHT70d8yq8AMhYEP3KeA/RLbFgYCcNBfrokEi4wcrJGH4+Y+AMuePq2odq4Fa/nvARLw7dOHlt+0nX+iNYsRbR6IYiTkj+rjS9jRdrTThlrEMEFRi7SdWPx4NITgBOPZykaUWNYg4Lcdxw68fEUOrPMlyBG/bTsaRWUfoRZyntlHWMQwgVGDiJjh2DdbiOIULnfGbQLCXwFua96hbD0RJMyFs9u3QkCOV/vDswM+A8Z7Q9KuMCwplNc/gpCkpww2neoMeZiV+4LHrFpKzerC9MRo3kZBPKkXMwM4N8XkfAXjCWRsT5Yt3s3CJnthNHa8cF7qXjpifedMJbn0FlDJ0dIv2C7P9OGmQGjGdrzChSudmBQkbk0zyniQunbWJ56JxeXXqg72YEVaStRsPFeUHqMmV2rtZKZLS+CCwwr1hY9j2j1IlnHoLQNVYbpmKX8DU/IGwB9fi1mKSej2rAQFN85bK+2Yi8Tv7wMvkRylIDwm/Hs1hehVOlkG4PiPMr356Ig7zVYGr6WbZzByswFcZj/+00g5D8l3U9pPRYlRPPC4eLhAuMo+8wFIEQrm31K92J52sN8E5cBa4qWIFq9QfTezK7cFOjzDsrm1yDmJlc74NGsKXwWfkq5Zi7/Ro3x93hU8wQutPI8GBaU7T4J0BOI0iSC4Gd23HFFeA9eWbrDCd4NSvgMRirpuig8uPRT2XKLztSvwuLEP8hi29uJjPPD2sI8KBT9zTxPYVfuQujzeF0YB+ACI5UtpX+FUiXPiVG14WW8vuJZWBqsstjndKLVhSFKnY5o9WQQMhyUtoOiFoV5Jag2HPbKoEXGcIGRQmfZBXmOiDsLHa2VxTaH42T4MbVYbNPrsfFvy2D5CqqNCzxSXNKXDBOCDDmcHvAZjFj2mfeDkOmMrV5BlVGLlWnvMrbrOOm6ICjIWETGRSEqLgiE+As/FH5CImfPExmKy0KUMaEXQdEKs+kzGIqrQVGFGsMpvuzwLrjAiGFN4WOI0WxlbNW9xCUybhhi1PchPSsRCkwHCMuauR1Crd/qimOoM76PakO5W1XT4zCHC4y9aHWJyFxaDDAtdNSGXbkPQp9XxtCmODQpIYhPmQilahKUEfeCYIzTwhcoOnDxixOo//gQyouPwWyq4cFsgwsuMPYQGeeH9bs/Z1o4iuI8clJjUVvRwsymGLS6CGRkvwhCZrpk/N5pQ7UhH/q8t3gqxOCAC4w9yBGt+8H+xXjpd1uY2rQHbdZ9yMheBYJJTh/bfjpQY9yKgtwXuNB4NlxgBkKruw+ZS9ll5UII/38fixKmOXU5oNWNRcbSfDcXlp504MT+hXjxd2+52hGONLjA9IcclekoWpCTNhG1xlZmNvsjMs4X64rWg5B5HtuellI9ctKy+GzG8+BxMP2RkT2fcdnLDhRs1DpNXGyzr/W7G0DIAo8VFxu25em63Z9jjf4hV7vCEQefwfRFQPjNeLXMDAjxHmyoNi7CirRXmdnrjzWFDyFG86rsxbCdDaV7sDztcdRVXHS1K5yB4TOYvoif/l9MxYXSvU4Rl8i4Ydhn3o0Yzc5BJy4QZjNzsH73h9DqYl3tCmdguMD0RsRdobhfm83MHqXlWJTwMDN7vWGbcT3z2hKs310vfAkHN0HIXPo3bH7/FQSEj3C1M5y+4Uuk3nj6jy9i4nRWTbbasDx1vKwblNHqUVhTtBcEru/l7Hxq8cSUu3iAnnvCZzC9MTGFXa5RtUEnq7hExQVibVGFl4qLjSjET5/laic4veO5Jwtyoc2KBcidTGwJ+y7phUxs9UaA6nasKzoByNQH6Foo2oU8Ikoboc9vFGZmhLSDWv95zVU+nXVV4IcotT+i44IA8ksQjJTVN2X4LwHskXUMjiS4wPQkI2sZI0vfCbEbcvLsH/8EEPnEhdIj0OcVgqIc+rxT4m7O++E/tVlRIIiHNisJIIkgjNvpxqeEMLXHYQYXmGtJ1wUx62tkrj8sa57R2qLnoVSlMLfb2d96G2qNhdDns/Ffn1cr7JUU5L0uBC9Ga+5Dhm4hoEhi0xxNMfhOywYJXGCuJUbzBDNbJ4pZl3X4gXVFzyJKvYqpTYpjKMhdJXsN2rqTHag7eRj6vMNCEunCNSsQGOHg6279hpV7HLbwTd5uhCereh4ja20oP3CEka3rWV2Ygij1Bmb2bMKyK3cSZgVMdnqB67qKNixOXIRdG8eDWqU3NisvbmDqF4cZXGC6mTbvMQC+TGx9sH+hLMemz7yWibGavzCxRVGNvX+a4RJh6Yk+vxKzAh/AhsdjcKY+Xyi+bT/f4dQn78joHccBeBwMuprWr99jYRK5S+lezFI+wMSva7HNXMZqDjCw1IFqow4r0l5nYEse7Gsr0kmNYRly0l9wil8c0fAZjI1oTQKztICCXLZ7IxBiXe7AWM02BpYasWvjvW4tLuhaOs0OzOjqK91XSc0rnR0YuLi4M3wGY2PvmTehUDi+/0JxTFhysIZFoXFKS7A8LcPjWtBqUsbimdd0UCgmgApL2Iug1vehz9sKfX6Vq93j9A8/RYqMHQKFgs3RtD43n4mda1lT+JDD4mK17kRO2qMeWdHfUFyF2YHy5nFxZIMvkaI19zGqtdsqdANkSWScH2I0jp0YVRvyhS+oJ4oLx+PhApOhYzN7qTZsY96CIzP7eYf2hs7UF2NFurzRxBxOP3CBIYokJnZqjWzrxmpSAhGtXuCAhQ6cOPAMQ484HNF4t8BoszRCbRFHoda9zMLqu5m14HeS98gozuOd3HgU5n/G1CcORyTevckbpU5lYqcg72UmdrqJjB2CO+/5b4l3d6Bg4xQU5tcx9YnDkYB3z2Ci4xxv4UHpRdQYTzLxp5uM7MckbzxXG3TQc3HhuAfeO4OJjBvGpmMAPcD0hCYy1gcxGp00V+gxrEh3fhBd+pJOMaytuMxPqzjX4r0CExPHpmh0QV4JEzvdRGtSJO4LdSAnTf54Ea0uDIRMRXp2HBQ0CpSMua7kQmdhqkZQVKAwrwQnDvwvL2fpvXivwESq72Fip6aCbexLRvZCaX4Y8mWrPxOpHoqMJemI0SwEyDWvG7kxFpzYlnbkHhDcg4zsRcjIMqEg7/eoNuxjfozPcXu8N1Vgr/mvUDhaXIp+hJnKe1m51NVk3yJB+Nvw3Jxg5l/ggHAFHlv9OGLi1zAIRjyFgtxlKMjbx8g7jgfgvZu8Cgb7L9UVJ5j40k1GVrqkWWW1YQNzcYmM9cEzW99BTPwWRpHOY5CRvRf7zAVCO1uOV+CdAqOZ9nMm8S+1hoNM/OkmWi1+eURRh9dXvMbUj4ysWVi3pxKBqoHLJYiFEC3W767D0689JsyQOIMa73yDCZNC2VaYTZUM7HSiSQkHIWNE31d+4DWmm6gZWXOQkf0nEEQys3kjIzFhRj6efi0bw/28d5nuBXinwDCJ3qWtMBy8wMQbG9N+mynhrnYU79zBzIc1hUuRkb1bEAC5IRiCoDEv4f4MVmVKOW6IdwqMJmUUAytfMLDxA9Fq8UF/Z+r/xmzvZbU+weHMbSlkZq0TTqk4gxLvFBgWT2izyczEE3RtqBIi/tjcbPqQzfhxwzBWaJbvgrAF4od1+s3OH5fjDLxTYAgcb5huaWDXDjZKHQVIaEZmKP6EyfiZ2etlbeA2EEQxD9qs+1w2Pkc2vFNgQBgcu9JzLDwRUJCx0lygjm8ya3URDNu1SCcjm30tY47L8U6BCQh3XGAoLjHxxUZ6lpSo4oswHHR8H0ibpQNYdFd0EIJJfBYz+PBOgVFG/NRhGxYTu+LZRMKpltVa4fC4AeG3MCl2zgpt1lOudoHDFu8UGFAGAtPA7ogaiBJ9h6HY8Sji8ZOmuMXspRsFSYYmxfEQAo7b4KUCAxbN0tn0Q+48QRL/pTKbHK/5MmZ8nMM22HITpv321652gsMOLjDS+ZaBDSBKLTEvhzQ6PLZS5X6zheg4BjV6OO6CtwrMzQxsMEouJBKXKOQfDg8doApw2AZzJKRLcNwW7xQYQlgIDKv8H2knWjXlLE6xWGRJs4VNnhjHTfBOgRkMsClN6T4bvD/gjj5xJOK9Fe04EDZVvYXI2CGI0vgC9DIK813Xnzsy1gdR6mHC0rjW0DbYaxhzgXE1BK78gLE5CWML28JZWl0oMrJzQci0q5/3B5e2oNqohz53E2or2KV89MfTr07BhBlZAEn8oYZx9hWAVqLauAevr3gdlgbXCZ9MeOcSiVIW+ydsnv6UXpR0n1Z3K4PRzzOwwRZK2dQVDgi/GZuPPI/MpZ+BkJk9HqZBiFEvw7rdn2PzkRUY7iffTC5dNxZbSvdh4swjIGT6dQXSBZ/IPUIW+5bSSmRk/ZdsfrgI7xQYNhu0tzCwAdQapT61HD8BKi8+47AN1tRUOB6hbOOxtS8icMwqAD/q56phCByzGvdrM5iM2ZPV+ql4cGkFlKqZA37XCAlERva7WFv0vCy+uAhvFRgWSwM2AlN3sqOz1YdYyB2OD06bHbfBmFqD4xHKUXG+iBFRfjQja77DY/YkMs4PY+N3it60jlavgjZrKnN/XIS3CgyLIDnH0w2uQlsl3OT4ca7ZVO2wDbZ0oKai1GErnb2l7P9iE8W9wuYrSzKynwXgJ+3erC1MfXEh3iowLGYwP2Ngoxvx+w7aLMcjXs0mti1vHYXS91FX4fhGp3bJBJF3/ATRanYBfpHqoaJmUD0hJAzaLDaNAV2MlwoM/cphE/HT2QWpUYgP+1fAcYExHLwAimMO22FFQd5WNoYkVAeUUvCrL2Ji4x2O54lRT2fmjwvxToEpP8jgOJA6XhWvG31erfibyD1M2n4U5LpJoSdaCX1escNmOnuOi89Op5ThcbWE8XsSGTsoUia8U2BAv3TcBmEnMKBSMqOHICA81OGh9XnH3WIWsytvBRM7MXHxEuK7vkLhJnZtd9Ozwhy2QcigiFHzToGhOOuwjTF3BTLxBcJx8cdCCxLRPtwjdq+hd1547LegaGJiSwpn6nOYzF5saLN/K/oeaq1hMnY3BHc5bMNK/4+JLy7GOwXGYpJyanM9w0dHMPEFQvGq70Fpiej7xv9SfKuT3jActCAnNUmSyDnKGdN7WJy4jomtyDg/ECI+WK38IJvi6bha38dxgSnM/5yJPy7GSwWGSUeA2xnY+AF9nvhlilI1kdn4tRWNqCqfA8o4VL9/OnBi/3PMrGVkPSgp/YVSdsf1nadRji9vKHW/IEgJeKfAUAZN0wgZjnQduybu1HpYgg/BSNdJOTHpnZXaUlSXz3aKyFBcRlX5bBTmf8bMZrR6rqT7WLV/gfCe3M3EDqUSNv7dD+8UGIBN0zQCdl9u/aYWSW1IMrKeYOYDBJE5jIKNiaBwfBnZFxQtKNioFsZihTZrKgiRcnTfAbOJ3R6MtA4R12MTX5abzi7EOwXGUPwtk6S6GE08E3+6qakQvw+jUMxFVJy0iNG+0OeXIydNDUo/ZmoXwpN5J5anjoc+n+0TOiNbJ+k+q/WAsAfGCgIG+2KDY/YCrxUYCB8Ex5uWRcWxOcXppsb4joS7fLrC0tlSa2zFooREWOlORhYrsSs3EbOUDzOJ1r0WTUogCJIk3avPZ/X3SY/B6QnFR0z8cQO8V2CqjQzeRDIB0eofs3BHoDCvFqDi/YpWL0T6EsdjL3piaWjHbOXD2LVxPKqN+ZJOmSj9EAW5SZgZMB76PMfzjHojfvqjku6j9CJqDOx8io5LYGJHn+f4w89NGBTBPJKoNf4vYjRrHLTig+TfpKLG+DYjr4APDqzHxBnvirxrCDKXbofhYDIsDWy6HVyLPr8SyK9EQPgzUKqioUkZB0LChWS+iPG3wXd0Zz2V8oNfd4oQtcBsaoC54WPUf3wal9ooc5+60UwLwIQUaQJTfuAPQjY7KzKy05jYMZv+l4kdN4C42gGX8p7lAgDHToKs9ABmK2cw88nGPrMRhIjvWVRjeBk56U8z9cXd2Wc+CkKk7Hu04rk54cwExrY8Wr/7rMM5SJTWYpYymolPboD3LpEgvJmOh8grSJLw4WJJjUFa0l+0Rod0HduNZ3dmTdESieICVBteZjp7iVaLKxHRF+6QtsEQ7xYYKcFtN+KDaDXbAkEFee+AUinpDD54MFvPXPDcEa3ubsSoN0i8uw0Fua+z9SdrDhM7+lwuMIMGKcFtvaHNkhbg1Rd1J6/AXP8XaTcTf6wr3MzUH3cjMs4XmUv3SJ4xVBs2MJ29BITfIsxkHecKk4JbboR3C4x+UyModbwFqxzLpPLi3ZLvJQottEvcry0sCyJjh2BdUYFQuFsKQpAf49mLMuJeNssjWsH8CN/FeLfAQPjAHWBgxQcZWQ8xsPMD5cUfwCohsrfbH6JIYeqPOxAZ64N1uwtASKJkG/pcHdPZC4Q4nPuZ2Kkxig+0dHO4wOjz2Lyp0eoFTOx0Y2mwQp8nLTrVRuZS9nExriZzaR4ImS35fkpLUJC3j6lPNiawEhgDm5IVbgQXmM5AK8enpYREQZt1HxOfutHnHYeVSouxsVoHT8dA28xln7kA0epFDljpQE7a4wy96qSzRITj5UuB8yjcNGgC7LrhAlN38grO1LOpBZuRtYpJGctrWZzwO0k5Qfq8wRFuHp/yC6zb/SEI0Tpg5Qp2bZyJ2gr2CYQL164foPeSfXz+MbvETzeCC4yNEwc2Ch9CRyFkEh5b/RsmPnVjafgaOem2ZYGYDpBtqDawXwo4G60uFs/+8W8OzxDO1L8Off4RZn51o9WNRaBqHhNbnx4fdMsjcIHpojD/IqwSKsr1RozmKSZ2rqXW2Ioqg/0f5GrDMuYbmc7EtiRaU/gsMpeeAMhwB611oCCXTcW8nmRksyuYbq4vY2bLjeAC040+l1FWLYlCRtYsNrauYWV6MaqNA4tXtXEVVqS/xXx8Z2GbtdiWRDGaDUxy5aoMWhgOOl5grCe22YsjG87XQSuEFjKDEC4w3dQY9wlLCxZkZG1gvhdjY0XaRuzaOAm0l1ITFI2oMkzHirQ/MB/XGWh1odhnflOYtbDZNO0U25Xp8iwVWc5eCvIZ9YNyP7w72bEna4qeR4yazQfHJgT6/ONMbPWGNmsMAA2AfwOo89hN3fiUUXjmtTUgirlMgtW6sVp3Ynbgw8zsXYtt9pK5lNWJTzuemzPao5e0/cAF5lq0S4KQ+VQDk6n5mfrtWJzINjZmMKHVBSFK8xBi4n4HkJFMbVNaguWpM4QTQjnYZzGCQHy2e29UG17GisGbAc8Fpid7z/xZKEPpON/guVT/wRb67RC2WVdUXAqi1XNAhPau7OsRdYrLA7LNCFYXpmOsRs/IWgd2bbwT+vxBUX+3N7jA9ESTEo5lW6sZ5ZaUYlHidFhMg3L62y/xKbGInz4Rw0dHYsxdY0CIbUknX5Y3RQfMp9bixd+9wLTG7rVoUn6BZVvLmf0dZ+rzsTgxi4ktN4ULTG9sLi1EoIpNdTJvKwIVFXcH1u7ew2wJYQ8Ul1Ag7HnJVyw7MnYI1u+pAcAqBaMNz80JHqx7L93wU6TeKD+wW1jisCBaoxOOXr2ByDg/rNt9wqniAlxBQe6DsooLhDyo1QzFhX3JCDeFC0xvlB84iDMmVpGVPsjMfhuR6qGM7Lkv64ryJJdRkAJFK6rKE6HPkzfM3rY0ilZLTzy9EfYFr9wULjC9YWn4tmsWwwgShnX6wV0ESrskzMF8IXFQWiL0blqplS8UoJvMrCVMN6S9ZPYCLjD9UF58AJSyCbyDUARqHtYWPsjMnrvhrPozFJdRbVyEWcpkIYVCbrS6sVBGsMk36sRrZi/gAtMPFlMHagzLmNqM0myFVhfB1Ka7kK6Tf2lE6QHkpEZjRdqrso+Fro3dzKV7mWRLd+PpeWIi4QLTHwV57zhQVe5GCIYiM/vAIC3KLV/9mc40iNmYpZwhS8mFvli3ezfbPSVa6dF5YhLgAtMfdSev4MXHtcIxKDNIGNYVvY/ho9l1hHQHCvJPMLb4b6FG7d4/zcWiKRGy5RT1RkD4LdhSWghCpjOzSfE1NixkE/rgQXCBGQhDcT2qDY8xtUnI3bhfy7ZZm6upNRQzKaAOtINat2HXxjGYpVRjx+p3hPKhzsK2LNpSug9KRnFQ3Zjrt8NwsIGpTQ+AC4w9rEx/V1j/s0SpYtPH2F2wzfaqDQslL5Vss5Xq8gV4LjUYswIfhT6fhViJx9Gi4r1zBQV5+YxtegRcYOwlJ/1xJrV7u4lPYVOSwJ1YqS1FlVErhO3bRyvO1G/Aro3BwmxlhXa7S3O31ha9xK7GyzXUGLfCUHyGuV0PgKcKiGFN4UOI0bApTEWpGbOUgUxsuRta3ThkZD0PKJJAruZ0XQGlp0DpRyjMrwDFcejzTrnY0x9YW/Q8ohmV6rgWihYsn3OnN50cXQsXGLHsM+9ntPl3HjMDRjGw475EqociKi5Y+JrVGk7JVj7BUTKy5iAjm2Fg5VWuYNfGCdDnn5TBtkfABUYsnfk2H4LA3yE7lLZgljKYmV8caUSpI7Cu6G8A2NakgbA0WoUcD60wyAi+ByOWuoo2VBsYFJKiTSzc4TjAGn081hUdk0VcKD2GXRtfYG7Xw+ACI4WV6Yfx+ce5Dtk4UXyUmT8ccShVt2Lz+2sQE18GwI+5fUorsCghzVv3Xa6FC4xUtjy9DJRKLRHQgfJiaR0bOY6h1UViS2klAiNymKYA/EAjlqdOhqVhUHYJEAsXGKlYGr5HTtoDkhIiawyrvPXY0qWsLvw1MpdWyFZSguIylqfez2cuP8AFxhFqKxqRkzZROIq0l2rjKuSke/3a3KkEhN+MtUV5GKvZA0CuujxXUF0+x6m5Uh7ATa52wOM53/olaoxvYWTAEIwMGAfSR90QmwhVly/AyvQ/Ot1HbyYy1gdLct+AatxCWcepNjyDldo/yzqGB8KPqVkSGeeHjKwHEa2OA0gwQL8Xgsv0+SWoMbzrtnEggxWtLgIZS3fKXsLzjOldLE6YI+sYHgoXGM7gwzZrycheghjNGqbN3HqD4jJeeGwsDAebZR3HQ2Hfl4bDcSXarHhkZG1h1n62fzqEfRcuLn3CBYYzOIiKC8Tawu4WtM6gA1Xls7FSK2/BcQ+HCwzHs9Gk/AKzHn0Sd979sExxLTdCaSV25c5DYX6VU8bzYLjAcDyPyFgfRGumIiP7KRBMcurYcremHWRwgeF4DpFxw5CRlY4YzVNMm6DZC6V7sTw1g4uL/XCB4bg/2qxYZOgWgCjmyNrfuj+qDS+jIPc5HmogDn5MzXFPbLOVGPVUaLN1Tm5FeyNnTO9gcYKzNo8HFXwGw3EftLowRKlTEK1OBCFJbvH5pPR9vPg4g/Ic3onr30CO95Ku84eCJECblQRCJgAOFvFiTY3xZeza+BwsJr4skggXGI68BIQroJmuggKhoAiDNisIBFFdgXC+rnavDzpQVT4PK7WFrnbE0+ECw5EHrW4i4qenI1A1ByCeUXuYokPoX1SQtw6G4i9c7c5ggAsMhy2RsT5Yt/sNEMKyYbz8UFSgYOPD0Oe7T6eDQQAXGA5bMpeu9zhxOWPSY+vy3/AjaPbwglMcdmizpiJa/ZSr3RBBB6qNK/Diwge5uMgDj4PhsGOf+UMQco+r3bALimMo2Pg4XxLJC18icdigXRLmEeJC0YoawzKsSH/H1a54A1xgOGwgiqmudmEAbMuhDSjI3eTS/tdeBhcYDhvSdfJU6mcBpaXISZ+HWmOrq13xNrjAcFjhXvt5FG0w17+L8gO7cUT/N1xqo652yRvhAsNhQ2H+aWRku9qLrs3b3K28yLp7wAWGwwYrLXfh6P8GpX9GQd5W6PNOutAPTg/ca1rL8Wz2mY0gxJmlFdpB6QG88Ph6GIo/c+K4HDvhAsNhhzbrPmRmH5N5lCtC2cqCPD1qjMX8RMi94QLDYcvaopdkiOZt79pb2cNFxbPgAsNhS2SsD9bufhMK4mgFuFZQ6zEU5P8VNYb3+IatZ8IFhiMPawof6+qsOHDNF4oOEPoRrKiEPq8ClJajMJ83kR8EcIHhyEdA+C1I1KZgxO2xXcW6rQAugeICLPVtsDS0gaIZFpMZlgarq93lcDgcjgfByzVwOBzZ4ALD4XBkgwsMh8ORDS4wHA5HNrjAcDgc2eACw+FwZIMLDIfDkQ0uMBwORza4wHA4HNngAsPhcGSDCwyHw5ENLjAcDkc2uMBwOBzZ4ALD4XBkgwsMh8ORDS4wHA5HNrjAcDgc2eACw+FwZIMLDIfDkQ0uMBwORza4wHA4HNngAsPhcGSDCwyHw5ENLjAcDkc2uMBwOBzZ4ALD4XBkgwsMh8ORDS4wHA5HNrjAcDgc2eACw+FwZIMLDIfDkQ0fVzvA4QhoUsZiwvQEAAEAbgbQDnP9JzhSWIJLZ78VaesXUIZHIyBiGICbZPOZcz31H1vw6fEPYGlo7/4n4lqPOF5PQPgt2FJaCEKm9/p7Sv+O5ekJqDNeHtBWVFwg1u5+GwQTZPCUYx8dqDYuw4q0TeDqznE5a4texDDf3/b5e0LuQELqr1Bj+DMu/N+VPq+LjPPD+t0nQBAjk6cc+/DBqIAkRMVdQdmeD7jAcFyHTRR+/fiuAR90BLdjlL8PyvaU9nnNNsMbIITPXNyFUQG/hNVawDd5Oa4jI3sJgB/ZdW20RofIuGG9/i4g/KcgZA5j7ziO4YOMpU9wgeG4jui43vddemcIouMm9fobpSqEH1i4IQQTuMBwXAjxF3e5IrCP39g3C+I4F0J8uMBwPB+K8652gdMLVtrCBYbj+dR/bAalfW8Ac1zBd9Dn5nOB4Xg+l9oolqfNAUWLq13hdFFtWA59/nEuMJzBQV1FO3LSJoLSEle74uW0o9owDyvSN4LvvHMGFbXGVsxSJkObFQcgHlqduE1keyDwB1GIOxKnKEHBxhckjReljkeMZo248WgJKD0laTxH0OefQo2xUBD7LrjAcAYf+rwKABXQ57G3rdVNQuZSsQLTBn3+MWnjYRhiNOLu0efpUZD3lqTxGMNMYNSTpwYRoogQ4jMnTQ1QKDCMEFwNjKIU7bYf49HDTQA+tZw2VVlONw2cX+JC/INChyhDwvwBRSiAYSAYcvWXFN+A0jaAtplPN7a0tjT1HcbuYtSTpw4jhEQCJMj2Z8VNmup37ftDKToAXDY3N7a1tjS1EEprzS0Nde7+/nDcH8kCo5mSNNY/KCwxMCQ8kRJyDwF8+7uekM6f+ITkrn9Jtn2wKy2nTSWW0417DWUlJ6X6whLb36WKHJc6YtToSZSQWGLHa6QBrhDgFKW01lBWcgKUHjccLal1jsd9+DQ56W5V9Lj0ESNvnwGCMf1dS7pSXgNDVcKPDTVwBaBHDaUl71iaTfssLU3tTnGcM6gQLTDT0+dl3hlz10rghw+t1JRsQjBOGaKy/SyLT5jWcqbJlG8sO/SWsz/M/kGhvvEJyU8oQ1RzAYRd9c/O+7tEKIoQEhWfkKy1/ZsmIfnvhrKS18zNpsLWlqYO2Zy/BvXkpCBlSNhDymDVPBAEOWKr828i98cnJN+PhOQOq5XqDWWH8o1HS6rYecwZ7NgtMGnzFz0YGKJade0XkDFBgaGq/MBQ1arPqz6Zd6Bo5z6ZxrlKQHCYX/r8xatByDx7ZipiIIT8Z3xCsu0n39zcsNNQdugFy+nGNpZjdKOenBSqSUheQQiZy/rv6GKIQkHmTUicNk8zJXmvoezQCuPRkjoZxuEMMvr9MA4f4fdTdWLSY2Mixz9KCFE5yadhd469a8+I0aMPnar+ZK3x6GHmSydV5NjA+IRpq31Hjf4vAD9hbb8Hw5Qh4TplSPjvLp47u+9U7advGMtKjrAwrIoa94v4Kclrh48aPYM4qfSGQkFmT0icNm1M9Ph9n1d/srbi2GE+o+H0SZ8Ckzp/0X1BIaq3bSsI57ok4OM7cvSMCYkpM2wzGv22zX9gZTggOCx0Vub8EwD8WNm0kx/5jhqdOmHU6FTN5OQDO19Zl3npwrmvpRpLnf9EQlBIxD4nCGRvCH/LxPtTUhUK8mtDWclfXOADxwPoNdAuff4Tvw4KUZW4SFyuIyA4fFX6/MVMzhtTH14Ur13w5EcuEJfrUCjI9JmZj2yTen/6/MWPBYZElLhIXK4jPmHaHwOCw/pKQuR4OTcIjHrK1HsDQiL0Qnq8m2BbYmgXLM5xxIZ6ctLYoDBBNHuvKeJkfEeOTtMuWLxe7H3a+U8+oQwJ3yrTXosURmoXPPl+QFCoW7yuHPfiBoGJT5j2Jzf68F4lIDh8TdojT0yVdm+Y34TEaXsBDGXvmXQCgsOXiRHO1AVPTPUPCcuX1ytJhKXNf/LPrnaC435cJzC2DzsBGec6d/onMDRim5QnZdqCxW8Ajh3byoW9wmlbhgQFR+jdUfzRtexLe2TRQ672g+NeXBUY9ZSksQHB4Stc686A+GsSkpeIuSFtwaJ0BfqoWO8m2COcaQsWb3OX5V1fBIaqNvClEudargqMJiF5A8N9l8uU4hSl+IhSeoyCVFKKVhaGlSGqZeGRY0fYe31gsBC74+74p81f/FJfv9RMSZ6lAElkOF73+1PR9dMotJtwHD+xDwDO4EaYbk/XzpujAEmSaoRSWldfW7n/4rmzhkvnz1aZ6qrMvV03fMSoW4JVd8beHhCcHBE9PlXismXIHcrgiQ11VQMejWomJ028NuJYDJTS9ovn2969dO7sh/V1VZ8B9P9A6ZeU4jtCcBNAbgVwx4hRfkHDR46OHD7S797hI0dPJETayY5CoXhYPTnpbePRkuPX/rvtNYtPSHZk36X9YtvZ4ovnz35QX1tZSUEbGuqqvux50W0jRil8R45W+o7yGzt85OiEiKhxqYQQ0adtyuDwhQCYhRVwPBtBYMZEjRd9moHOJLlGQ+nBBYYeX4q+uHTh3LeXLpw7Chw7qjz5t9+rJyc/rwxVLRM77k9vHWbfDEZBQsTatnHx3Bfby0tLfm+qq/yin8u+BtBqqsPVQEDb8kCTMC1HGRK+SMJs8Kb4hORVxqMlk6/9x4QZqQ9L3T+6cO7s3rL3ijLMdqQqfHnhnPXLC+daTHVC0aZ9VcGhzyTMSNvjO2p0iqhBCfGLm5z0k4qjJd9I8ZkzuFCoJ0+NIoRICP+nJwq3bbrXXnHpifl0U0fhji3PmZvrdWLvvXiuza6Qe2qlonOaiJWW7C948/EBxKVXLC1N7YXbNz9tbq6fDuAr0WMTMiluUtJ1sUeBoSpJ7TiEv0O/wy5x6Q3b+/NewZsPU0pFVomjbVxcON0oCFEkiL3J9qHTv7H5ARZJiYXbX91ktVp3irjlypfnzn5o57Ufi3SnUr/9lQcuXjj3vcj7rqNw+6ulp2o+kbT3o1CQqydK/sGhQwHEibVBKU7Z/o5L5885tK9y6ULbhfLSQ7OpkFltH5bmRr0jY3IGFwrNlCTR3fAMZSU6S0vjRVZOFG3fnEUptW8T2Gp9u/6zKrtmF8ajJa0APWCnGx2G9w/Ok/rE74mh9NDrVKgXIw715OSr70dAUHiUlI13Yym7v8N4tKTK0txg7x5QR3nZIWmV2ziDEoXoTVBK2wxlh5hmOttmQpZm09yBTjKEmdOOLc+Jsa3f9sqj9kzzzU0NK8oZliK4dOHct60tdn8xr0II/aEMhlAkShyUoqL8KNvaOsaygysJBq51a24yLZQrY5zjmSgIIf0WiuqJlaJSDkcKd7x6/MT7B++1LVP6GPhA4fbNE8V+gC2nm9ps9/U1k6EU7eYm09zCHZs3SnS977GbGwvF3tNjP0z0KU5rs+l9sfcMhPl0U4d+2ysPmJsbNvTxEGizNJm0hTu2uEWZRo774CP2Q9xQVylbkyvj0ZJa49GS8ZrJSVNByD0ALnfGbNDjxqMljVLtWk43tr6Us2SGZkpSvHpykpYQciel1GI8WnLM0twgW7W28rKSFnXCtMtEXIrC1UC1CYlTfSkVN6a5pUny69Sv3dNNHebtm5/zDwrdqAxRTe1KhLWJzRfmZtNf3blkKMd1iA47H/qzYbLXHTEcLTkM4DBzu2Ul5bYf1nYH4FuROVAOpgJQWZNUW1uaLra2NL0j5xgcB9FMnwJ/FdtMe0v9JXz6twrUf3JGzG0+Qh8TESHotyuDJAWueSPqKUlBBBgp8rarM4GWxsbL3TVy7UUzZdokQ1nJ6yLH5AwmAlW/FX6YMh3IXPodqo3PYEXaJnvvUlBKRZ0GEULGqScnRUjy0csICAn7tdh7KMXV96O1pUn0hikhmBMQFOaWiZ0cj+dHiFHnY22R3fWZFLYHpchBbopPSN7pHxTqNvVi3JHhI/1uCwxWPSX+zh+O6+0+ur8en7T5i9/wDwp1y6xrziAgWq3DGv2D9lyqsFIqur0GISQuff6Tf+WZs30zU/vwKimnQAS4+n4oCCQdmysUJNH2/tw2YtTNUu7ncAYkOn6uPZcpjGUlFVLsKxQkSfvokk/THlkkehkwmLGJrnbB4jzfUaMXS7m/vKzko2v+u4UCkuJKFAoyfVbmIwcCgsNcWh6UM2ixK8Lcp/V0w2Ha2ThMypQ6KDBUteepNa/UmptNb7eebix2dcMxV3G1J1GISudI3RZC6XWnZ9RKS4iCzJNiy3fk6F9pFzx52mqleuPRkj2W06bjvFsjhwnEvs+4jxADQq0lIArJRZkIQVRgqGqD7Sc+cdolUPo5BW2lFG3Go4dbQdAGKz0D0LZTtZVnvnQw18dVxE2aOlShQBCguMM2WfEPCg0NDA3zB1XEgTDpF/VReY94H5swxCckSxKYLoSeRjYbFMm2B0kLKG2zvT8Xz7e1mGqrbOO1gtJzlNI247HDPBKXYw92HQ4Js5b39DtXzMp45FfCLrHjDAchEwhIj1axnWgSU6zE5hylXwK4UF9b2QLAfPH82c8unW+ruXDu7ClnC9BtI0YpRowaHX7bCL9I31F+QQQkbOjPhg2/IzBoNCi5rUuth/eZFyS1tWUP6qs+WdPz307VfHJIPTmpVKEgopNSe9I1Sw0DIWG292fEqNuFn2uZcH/KdwC+BKXtX3/VfuYLc4sJoA31tZXVlKLGVFd5Qy0Zjhdypt6uUAhBYEy1lVXmZtM6ZYj81d9I58nVSBAyEsCYiOjxE23/HoHx3Ze0Xzh39tXS/UUb5JzO+weF+ihDVFM1U5LmEiIU2+p9ysdIPAbESve+10s3yy8vnLMaSg8unHB/So2TOj38SNicJsTvp7f+fExE9M+F7O6I6Lu6f3+ivPTQNme2xOW4HaewNeeGh2FvXC2ZaSw79AKlOCWrW/YxbMSo0TnaBUss6fMXPS/HcfgM7by5GQuWNMQnJB8ghGjdoNZth3775qy+fmk8drjxTJPJXeolT4hPSN6Z8eiS02mPLFrCT6q8DVqL5anJqDtp18PlqsCYTzd1lJcWpwLUXZ5Kw2wzqq4PcjoLgwEhYXcsXbPpz2Oi7/qzo83hWWJpMi20tDT2G49UtGPLRgKrvaUnnIFfYKgqf1bmIwd4TJTbcbErvo3dD6UfoaV+GZ5LHY/aCrtj5647OTIePVx7Z8z4DcNH3u5OhbJtH2S9dsHiCSfeP/i01Gl52iNPTA0MFRrKuXq2ch3mJtMae7OQ9ds2p6YtePIIARFdw0cufEeO/lXGo0s+P/H+wSTj0ZJ6V/vDAVCQ+xQK8twis/2GxmvvFby5TkSRJqcREBy+KH3+k3+V8rTULnjyWWVoxAE3FJeXC3dsWWn39aebOoq2vXK/PbVZnEzQhMTkj1IffuI+VzvCcS9uEJiL5899/1LOkhlnmkxPMWplwQyFgiR1Raj22lO7N2ziEhActsHdGpZdPHd2Z+GOLU+Lvc8mMrveeGWGubnBNsv8Th7vpECGBoWpDqgnJ411tScc96HPL6ptzW8oPaiGmz0tbSIzJnq81p5rhVarwWF27XY7kSvm5oaX9xfs+G+pBlpbmq4Ubt/8h/qaTx52r4cAGTohcdpenkLC6abfmUB5WUnlSzlLkstLD02n1H2ERjMlOXugawKCw/yCgiN2utPMhVJ6zPD+wQmF2zc/7WhhcXTGL+3Sb3sl2NzckE8pZCmaJYGgtPlP2p1tyxnc2PXlM5QdKrb9RESN87s9IGhmUPidk31HjR4HIIRRcJ4oCCF3z1u8bPnOzRvW9fb7obfeelP6/MVvSkk2ZMy/KaUf1tdWltTXfLrbVFf5GesBLKcb2wq3b87yHTnqmeEjR2tUUePifUeOvst31OhIIajOBQKrUJB5M7TzSvfrd77t7LE57oWoD199bWVbfW3ln3Bo758gdPELHXJHUHhUV3Fqf/Xkqf6EkACAhNq+3MTOfAUpjPC7/Q8BQWF/6q27wR0BwbFdwXMu48K5sxtL3ytaI1c5zp5cPH/u+4vnzx2vr6282qdKFTV2hO+I238JAn//oFA/ZUiYP0D8ABIEwFfO92dM9F15n1Z8oOelNL0bh55uQp3W000fARAygA1lh677vX9Q6JCA4DB/AuIPQu4QmtdPnhoNophFiKgykr36rp6S9JBlx5YbinVHRI2f5qBth7l0/uzXzhKXvjDVVl0woerdvn6vnjx1BCG2hwEZZXsg+AeF+itDwqMAMomB+PgqQ8JTWluamHag4HgWsk6fW1uaOlo7i1BfTeCziZBt5uMfLITpL3RkpqEMUWkB3CAwquhx8Y74DUrPU0pLDGWH3wOh9fEJ0z4Qe8QdETVeux873bpHs/Ho4Qu2yVbPf+9Ko0iIT0haDZB7pdrXTJk2x1BWwgXGi7H7uJcltpmPoezQvpdXLEkuLz2YJL49aSeE4B71pKQb9lkIyC8kunbFaqXb9hW8OfbllbqHDEcPvWsoK6k1N5sk9DciY9IeWWRX1S93w7asMZQdOrxj0/pfAXSPVDuE0ES2nnE8DZcIzLUYykoOd/UtkpQHRRS4brYSN0Xo7Sy20LaNy+bG+qSNK5c8aqqrvK5kgaH00Kau4uiiUIaEr/Lk0pWXzre1v5SzJNXc3LBVmgXip4ocfxtrvzieg8sFBl19i/RvbE6W8iUOCFaNu/b/KygkBXqZG+tnF775ammv/rU0tZubTS+LtUkICdNMSX5Mij/uRHnpwcWUUkmVD0HoHcwd4ngMbiEwEL7EjS1SliIBQWHXt1EhxF+sDdsTui9x6cZYdmijlF7TgaGqNZ4eeNa5ZCqRGrA4irE7HA/iuun7bSNGKWLuUaf87NafawByE0C/unDubI2prvK4bbostzOVJ0+8HhCiWkkA+5u7Eaq89v+qosaKzZL+96cVH+QOdJH5dFNHfc0nv42IufuQKP+AYYkz0/64r2DHg19eOGcV6dtVho/0u00zJVk7fKRfnO9Iv9sB3PSFuaXudOPn+4xlJUek2rWXUzWfHNJMSWohhIh6fQlwKzsv5G0qN4i4xdUOdHNVYAKCwwLTFzxZQno0w4+IHo8JidMun2mqX1C041XRvZbFUF9b2TaD0tO4vj/zAJDr9ltGjPITNVuglJ421VU22HPt/sK3jqiixv+ZKBSiSlj6jhqtTZyeWlL0prTezerJSbETEqeV9DzJuiMweNIdgcFPaCYnlxTteCVVzgJdneJIagFxZS5UUXcNra9l1M5cm+WLAh4kPCCRcVL2IGVBWCL5B4cO0S548lhPcbmGoYGhEXrtgkUPOcEnh74klIqr+kYIETWeofTQWnpN90V7UYaGr5CSCW57byYkTtvT3zG5QkGS0h5ZvFvuDWVCxP/dl86fZVj+lLKoe+xpiP8+RKtFbxPIhSAw8VOmPWvPkykgWLV1+Ai/EXI6RAhxNABPVozHDjdSq3Wn2PsIIWHxCclLxN4XP2Xa+q5G8/2iUCiSNJOTZT0Wp5SK3ku6dP5s38mYROSmPlHcI3Z8j4dKeuDa1VLEGShsT0hlSLjOzuuHqKckpcrljM0XKnIKDojfeHWUos4aLqJLJShDVMvEbPh2BryF270cU4YKx+Ky7VMQQsaJvYeC9C0iItsWC0KbrhPtg2fTz+vX5y0kCtolblGxUREQFH6PmCjVMdHjH5VrKq4MVt0nIftZSntVh7Ccbmy7eO7sXgm3DtMkTFtt78XK4PAwMe8NISQoPmGaLJsUminJUyUV7Orv5I3a1/riOjKyRM8CPZpag6QgVETHu8XrpCAEvmJusD3F4hOEaTtz1AlJons5m5sbGO0giqO+9tPdUu5ThoQvVE+aat9eAiGiZyM2+9oFi5+X4lt/aKYkSSqjSim19PNr8V8ehWIuVusdbuHiMdSd7ACV8BCNVi+CVhcri08iUFAJTxFlSPhT6Z0N1plNx9PnL1qiABEdWt7a0niSlQ9iqK/59KCUwEAAPpqEaXYJQOtp0ykpG8oBweGrtAsWv8Gq4r92weLVhBDR63pKaW3DZ1Vf93lBYZ6U6G0fxMTvxWr9VAn3eiZUUpS7DzKX7oVW59Iypjd9+83XreNjJ04lIgPUbv358Lui746bO3zkqCE2hb10oe2fUhxQRY2Lnql9+GW/gKCniMjAP0rRUvpe0VPffvvN1fgSzZSk2SL3CtoMZYfsaiJ1Lf/69pvvfUeOsviOGi26NzchJOb/7/j2/bOWM/093fHP9n9cUUWO/fFPhv70l2LHsL0/4XdGz/zRj//jX/9xy9AvLl1o+1asjbs1k+578LGsnbf+fPhvxd6LzlneS6baSkOfF0TGfYsYzeOiDRP8CH7KudBmTYJS5ddZ1Y/8A19dkr80RFRcEKI14jptUlRCnyc96VOp8odSJWXWNhTRmt8gfno8ouL8QPENQP7plNepC6GtmGZK0n3xCdOOOWir4kyTaU/V30+8U19b2e/Ga2fdGEV307NJUge0NJme0vco1/DUmvw3CREVp1L5Us6T46X68PTa/L8Citli77t4/uzeNzetf2Cg64Rm+o8uOc2gYPmJM02mktaWpmPUaq03Hjt8w8xVPXmqLyGKsf5BoROUoarpBJB8akMp2ou2bRptHqgLxD7zua4mfI5jW0oQehGd1f1sSwsR5URJOwrzjqG6vLDfnj9a3SRkLj0qyi8rdmJ2wMOi7rluzCVhyHzKrlgtuxBeJ7SB0sviX6d+sDSYUX5gF/R5V1cVV/sWPr120xFIWKL0hAL/JsDnlNJTlNKLtMt5QjBEQYgfiJDprHJ0HKFZ2RubRvesueJsgVFPmhoWf3/K5xI2p787caQ40njscONAF2rnL3osIEQlMeGwdyjQToDzwscfQm2eYV3/ywRzs2lD4fYtzw144ebSfQhUzWQ1LgNasGvjXOjzy3v9rSsExsZ75sauQm7uD6V6LE9/FHXGy1eXJB8cObiYRQHprjD6KELIHIVCsfCmmxQ624/tv0HIbEbiAnNzw8uuLuiEH+JipJSG/JEmITnHngtPlB7aLjnZsA9Ip6DY3osxXXE2LOOP2gylh16w60pzfd9LKNcQhIylJdDq3Ks7wpl62dNBmEGIFuuK9iMy1ueqwFQcO3zK3GRa5lrP7INSet5YenCtq/3oRmp0r0KhmKuenHT3QNe1tjRd0W/b/BuJm8pOx9Jk0tkt/uXF+2V3SCwEQ5GZvdP2BXG1K1cpL5YSFuE6CCYhI+vB6zZVC3ds2UQp7X1q6EaYaj7dPODa3ok4MIvxiU+w7/i3taWxsfV0vda92pTcCLXSt/U7ttifs2Yo/gyUuuGXh4xDjMZ9jsPLi48ITec9iWjN3BtObYxHDz7hzh9iSmlLeVnJJlf70ZOiHcJ+g+jXjRBFkn9w+I/tubZg26uHzc31c6XMlpwDPVa0/ZVHRd+Wk76434A8V5Guc5+KfJYGK3Zt1DLbkHUOQTcITHnp4arW0/Wz3VFkbOJSuG3z5EsX2vqOrXARltONbebTDaLr2dhmMQFBYXfae3Hh9lff/b/T9dPd7f2hlH6kf2NzqqSZZa2xFdUG9/vyKHrJ6hebPyVA2WS56/OrUF0+2+1ep77p6DXuxPak3Ldrh+riuS+2u0l70u8unju7/c1N6//T0tLYb/TnxQtt58UYppR+47B3Xby/r2g1pbRO/J1U1NXd78/X//zHYfFjMYbSry+2fbHyzVfWTeythYzdrNQex66NcTCbipn65wgtphvfyxPF1aDUJMpOQa7kusY3sFJ7uOt1cr+9q56YG070WTjp0oW2rypPnniPUrpXGRIWAxClc73rhFKcMpYenPVe4c4//uvbywMGi93yk6E/UYaE29VaFkK0bMP/1H76d3HHjn3wr2+/+R5AnZgERQCXy0sPLv2q/R+iilHZ3p+Pyo+9rQwObfvZsNvucVEW+sUTpYeS9xfuLPjXN984vmyrqziHg/+zC5QeQ5RmHIhLG+d14MXHH8T51utnH199SUHRgBj1XLusUKrHivQbOl84ROfrVABK9yFKMwZEbIKwU+jAiwsfGLAyW2tL43lDWcmbypDQU7cOuy0KhIjKXZIKpWi3NJs2HH737d/UVn54xv77aFPUXbFPEELsqerVUffxySctLY03tO6QiuV04xnNlKRJ9lZ+szQ3vGY4WnJI6ni1n/79Y0tzw/af/Xz4kJ8NGz6GEHH1cCTSYW5uePnQnrfT6yo/bGJuvbbiDPR5rwsRsFFx0cwC8cRQbVgGfX7vR8N1FU2IVAOjAgYIEqWnsDztAVxolWdJU1vRBn3eW51Cox7RFWPmDlxBlSENhfkf2136sfaTv9e1nm7YfvPNP/7H8JGjY+X8IF9oO7tzv35HsuHo4cP/bP+HqCejbSagihzn+5OhPx2wN5LwJfnLrgKHnO0Fq5WeDAxV/TcGLq3Zcejdd1K/av/SoTX6V+3/6Kj79O+HLc2m12/9+W1tt/58uJ8sbXMpbTE3N+QfevftVMPRkmLbuMzHuJbainqUH3gD/7x0HBRfYJS/DygZJqQKyMcVVBufGXDWUbb7OCLj2jAyIBGklyBLSg9gedos1FV8KaOvnXQKTRGqjZtwvvUj4bUa6d8BkCFwvMGhOCgaUW2Yi5XpwlKXSLHR2TgtPF0zJXlOVxdAh/8ISlFpbjbpLc2N7xqPlQwY3dofw0f63fbwk8+V9peTZLXSnYXbX3lUrtamjyxZ9v8NH3n7yn4u+a61sX5mwZuvyrKPopmcFBcRPX7u8JGj08VmzF+LbYlKqbXEcLREb2lu+NjlrWAjY30QpQkCQagQFGdbRqVn3QHgpwBsXyipKRUdqDFWoNb4DvT59n/+IuP8sHDN41CqNII4UZyCPm8P9HnuEe4RGTsEURp/EOoHQmwPnZ8IIi0L1IIaw3uoO3n1M/L/AgAA//+UQLJViQ1LBQAAAABJRU5ErkJggg==;" vertex="1" parent="1">
          <mxGeometry x="190" y="390" width="40" height="40" as="geometry" />
        </mxCell>
        <mxCell id="j31GDxyFJG87RY9cWTl1-6" value="" style="shape=image;html=1;verticalAlign=top;verticalLabelPosition=bottom;labelBackgroundColor=#ffffff;imageAspect=0;aspect=fixed;image=https://cdn4.iconfinder.com/data/icons/music-ui-solid-24px/24/radio_signal_antenna_broadcast-2-128.png;sketch=1;" vertex="1" parent="1">
          <mxGeometry x="230" y="450" width="50" height="50" as="geometry" />
        </mxCell>
        <mxCell id="j31GDxyFJG87RY9cWTl1-7" value="srsenb" style="text;html=1;strokeColor=none;fillColor=none;align=center;verticalAlign=middle;whiteSpace=wrap;rounded=0;sketch=1;" vertex="1" parent="1">
          <mxGeometry x="235" y="500" width="40" height="20" as="geometry" />
        </mxCell>
        <mxCell id="j31GDxyFJG87RY9cWTl1-8" value="" style="rounded=1;whiteSpace=wrap;html=1;sketch=1;" vertex="1" parent="1">
          <mxGeometry x="130" y="440" width="70" height="90" as="geometry" />
        </mxCell>
        <mxCell id="j31GDxyFJG87RY9cWTl1-10" value="srsue" style="text;html=1;strokeColor=none;fillColor=none;align=center;verticalAlign=middle;whiteSpace=wrap;rounded=0;sketch=1;" vertex="1" parent="1">
          <mxGeometry x="145" y="500" width="40" height="20" as="geometry" />
        </mxCell>
        <mxCell id="j31GDxyFJG87RY9cWTl1-11" value="" style="verticalLabelPosition=bottom;html=1;verticalAlign=top;align=center;strokeColor=none;fillColor=#4D4D4D;shape=mxgraph.azure.mobile;pointerEvents=1;sketch=0;" vertex="1" parent="1">
          <mxGeometry x="155" y="460" width="20" height="30" as="geometry" />
        </mxCell>
        <mxCell id="j31GDxyFJG87RY9cWTl1-12" value="Zero MQ" style="rounded=0;whiteSpace=wrap;html=1;sketch=1;fillColor=#f5f5f5;strokeColor=#666666;fontColor=#333333;" vertex="1" parent="1">
          <mxGeometry x="130" y="540" width="160" height="30" as="geometry" />
        </mxCell>
        <mxCell id="j31GDxyFJG87RY9cWTl1-14" value="" style="rounded=1;whiteSpace=wrap;html=1;sketch=1;fillColor=default;" vertex="1" parent="1">
          <mxGeometry x="383.76" y="455" width="70" height="90" as="geometry" />
        </mxCell>
        <mxCell id="j31GDxyFJG87RY9cWTl1-16" value="" style="shape=image;verticalLabelPosition=bottom;labelBackgroundColor=#ffffff;verticalAlign=top;aspect=fixed;imageAspect=0;image=https://raw.githubusercontent.com/magma/magma/master/docs/docusaurus/static/img/magma-logo-purple.svg;" vertex="1" parent="1">
          <mxGeometry x="371.89" y="410" width="93.75" height="30" as="geometry" />
        </mxCell>
        <mxCell id="j31GDxyFJG87RY9cWTl1-17" value="" style="html=1;whiteSpace=wrap;shape=isoCube2;backgroundOutline=1;isoAngle=15;labelBackgroundColor=#7F00FF;sketch=1;fillColor=#7F00FF;strokeColor=#410082;aspect=fixed;" vertex="1" parent="1">
          <mxGeometry x="398.77" y="470" width="40" height="40" as="geometry" />
        </mxCell>
        <mxCell id="j31GDxyFJG87RY9cWTl1-18" value="AGW" style="text;html=1;strokeColor=none;fillColor=none;align=center;verticalAlign=middle;whiteSpace=wrap;rounded=0;sketch=1;" vertex="1" parent="1">
          <mxGeometry x="398.77" y="517" width="40" height="20" as="geometry" />
        </mxCell>
        <mxCell id="j31GDxyFJG87RY9cWTl1-19" value="" style="shape=image;html=1;verticalAlign=top;verticalLabelPosition=bottom;labelBackgroundColor=#ffffff;imageAspect=0;aspect=fixed;image=https://cdn4.iconfinder.com/data/icons/social-network-round-gloss-shine/128/docker-icon_copy.png;sketch=1;strokeColor=#410082;fillColor=default;" vertex="1" parent="1">
          <mxGeometry x="394.89" y="263" width="44" height="44" as="geometry" />
        </mxCell>
        <mxCell id="j31GDxyFJG87RY9cWTl1-21" value="orc8r" style="text;html=1;strokeColor=none;fillColor=none;align=center;verticalAlign=middle;whiteSpace=wrap;rounded=0;sketch=1;" vertex="1" parent="1">
          <mxGeometry x="396.89" y="312" width="40" height="20" as="geometry" />
        </mxCell>
        <mxCell id="j31GDxyFJG87RY9cWTl1-23" value="" style="shape=image;verticalLabelPosition=bottom;labelBackgroundColor=#ffffff;verticalAlign=top;aspect=fixed;imageAspect=0;image=https://raw.githubusercontent.com/magma/magma/master/docs/docusaurus/static/img/magma-logo-purple.svg;" vertex="1" parent="1">
          <mxGeometry x="371.9" y="200" width="93.75" height="30" as="geometry" />
        </mxCell>
        <mxCell id="j31GDxyFJG87RY9cWTl1-29" value="" style="aspect=fixed;perimeter=ellipsePerimeter;html=1;align=center;shadow=0;dashed=0;spacingTop=3;image;image=img/lib/active_directory/internet_globe.svg;labelBackgroundColor=#7F00FF;sketch=1;strokeColor=#410082;fillColor=default;" vertex="1" parent="1">
          <mxGeometry x="520" y="455" width="50" height="50" as="geometry" />
        </mxCell>
        <mxCell id="j31GDxyFJG87RY9cWTl1-31" value="mgmt" style="text;html=1;strokeColor=none;fillColor=none;align=center;verticalAlign=middle;whiteSpace=wrap;rounded=0;labelBackgroundColor=none;sketch=1;fontSize=10;" vertex="1" parent="1">
          <mxGeometry x="260" y="252" width="40" height="20" as="geometry" />
        </mxCell>
        <mxCell id="j31GDxyFJG87RY9cWTl1-32" value="S1" style="text;html=1;strokeColor=none;fillColor=none;align=center;verticalAlign=middle;whiteSpace=wrap;rounded=0;labelBackgroundColor=none;sketch=1;fontSize=10;" vertex="1" parent="1">
          <mxGeometry x="308" y="459" width="40" height="20" as="geometry" />
        </mxCell>
        <mxCell id="j31GDxyFJG87RY9cWTl1-33" value="gRPC" style="text;html=1;strokeColor=none;fillColor=none;align=center;verticalAlign=middle;whiteSpace=wrap;rounded=0;labelBackgroundColor=none;sketch=1;fontSize=10;" vertex="1" parent="1">
          <mxGeometry x="417.76" y="368" width="40" height="20" as="geometry" />
        </mxCell>
        <mxCell id="j31GDxyFJG87RY9cWTl1-34" value="SGi" style="text;html=1;strokeColor=none;fillColor=none;align=center;verticalAlign=middle;whiteSpace=wrap;rounded=0;labelBackgroundColor=none;sketch=1;fontSize=10;" vertex="1" parent="1">
          <mxGeometry x="480" y="459" width="40" height="20" as="geometry" />
        </mxCell>
        <mxCell id="j31GDxyFJG87RY9cWTl1-35" value="mgmt" style="text;html=1;strokeColor=none;fillColor=none;align=center;verticalAlign=middle;whiteSpace=wrap;rounded=0;labelBackgroundColor=none;sketch=1;fontSize=10;" vertex="1" parent="1">
          <mxGeometry x="374" y="368" width="40" height="20" as="geometry" />
        </mxCell>
        <mxCell id="j31GDxyFJG87RY9cWTl1-39" style="edgeStyle=orthogonalEdgeStyle;rounded=0;orthogonalLoop=1;jettySize=auto;html=1;entryX=1;entryY=0.5;entryDx=0;entryDy=0;fontSize=10;startArrow=classic;startFill=1;" edge="1" parent="1" source="j31GDxyFJG87RY9cWTl1-36" target="j31GDxyFJG87RY9cWTl1-24">
          <mxGeometry relative="1" as="geometry" />
        </mxCell>
        <mxCell id="j31GDxyFJG87RY9cWTl1-36" value="" style="outlineConnect=0;dashed=0;verticalLabelPosition=bottom;verticalAlign=top;align=center;html=1;shape=mxgraph.aws3.vpn_gateway;fillColor=#F58534;gradientColor=none;labelBackgroundColor=none;sketch=1;fontSize=10;strokeColor=#410082;" vertex="1" parent="1">
          <mxGeometry x="525" y="254" width="40" height="42" as="geometry" />
        </mxCell>
        <mxCell id="j31GDxyFJG87RY9cWTl1-38" style="edgeStyle=orthogonalEdgeStyle;rounded=0;orthogonalLoop=1;jettySize=auto;html=1;fontSize=10;startArrow=classic;startFill=1;" edge="1" parent="1" source="j31GDxyFJG87RY9cWTl1-37" target="j31GDxyFJG87RY9cWTl1-36">
          <mxGeometry relative="1" as="geometry" />
        </mxCell>
        <mxCell id="j31GDxyFJG87RY9cWTl1-37" value="Actor" style="shape=umlActor;verticalLabelPosition=bottom;verticalAlign=top;html=1;outlineConnect=0;labelBackgroundColor=none;sketch=1;fontSize=10;strokeColor=#410082;fillColor=default;" vertex="1" parent="1">
          <mxGeometry x="600" y="245" width="30" height="60" as="geometry" />
        </mxCell>
      </root>
    </mxGraphModel>
  </diagram>
</mxfile>
